HIERARCHY
ROOT Hips
{
	OFFSET	0.000000	0.000000	0.000000
	CHANNELS 6 Xposition Yposition Zposition Zrotation Xrotation Yrotation
	JOINT LeftUpLeg
	{
		OFFSET	12.811937	-7.635976	0.557276
		CHANNELS 3 Zrotation Xrotation Yrotation
		JOINT LeftLeg
		{
			OFFSET	-0.429270	-42.206159	-1.204951
			CHANNELS 3 Zrotation Xrotation Yrotation
			JOINT LeftFoot
			{
				OFFSET	-2.112259	-42.464481	-3.973220
				CHANNELS 3 Zrotation Xrotation Yrotation
				JOINT LeftFootHeel
				{
					OFFSET	0.387196	-5.329707	-3.419729
					CHANNELS 3 Zrotation Xrotation Yrotation
					End Site
					{
						OFFSET	0.327567	-0.000003	16.505428
					}
				}
			}
		}
	}
	JOINT RightUpLeg
	{
		OFFSET	-12.811937	-7.635976	0.557276
		CHANNELS 3 Zrotation Xrotation Yrotation
		JOINT RightLeg
		{
			OFFSET	0.429270	-42.206159	-1.204951
			CHANNELS 3 Zrotation Xrotation Yrotation
			JOINT RightFoot
			{
				OFFSET	2.112259	-42.464481	-3.973220
				CHANNELS 3 Zrotation Xrotation Yrotation
				JOINT RightFootHeel
				{
					OFFSET	-0.387198	-5.329707	-3.419729
					CHANNELS 3 Zrotation Xrotation Yrotation
					End Site
					{
						OFFSET	-0.327566	-0.000003	16.505428
					}
				}
			}
		}
	}
	JOINT Spine
	{
		OFFSET	0.000000	13.731315	-1.007646
		CHANNELS 3 Zrotation Xrotation Yrotation
		JOINT Spine1
		{
			OFFSET	0.000000	12.091746	-0.604589
			CHANNELS 3 Zrotation Xrotation Yrotation
			JOINT LeftShoulder
			{
				OFFSET	5.746115	20.990027	-0.833816
				CHANNELS 3 Zrotation Xrotation Yrotation
				JOINT LeftArm
				{
					OFFSET	10.881538	-1.359258	0.219250
					CHANNELS 3 Zrotation Xrotation Yrotation
					JOINT LeftForeArm
					{
						OFFSET	4.390314	-31.537147	0.202818
						CHANNELS 3 Zrotation Xrotation Yrotation
						JOINT LeftHand
						{
							OFFSET	3.168650	-24.865023	5.373370
							CHANNELS 3 Zrotation Xrotation Yrotation
							End Site
							{
								OFFSET	1.457528	-10.806075	2.170267
							}
						}
					}
				}
			}
			JOINT RightShoulder
			{
				OFFSET	-5.746115	20.990027	-0.833816
				CHANNELS 3 Zrotation Xrotation Yrotation
				JOINT RightArm
				{
					OFFSET	-10.881538	-1.359258	0.219250
					CHANNELS 3 Zrotation Xrotation Yrotation
					JOINT RightForeArm
					{
						OFFSET	-4.390314	-31.537147	0.202818
						CHANNELS 3 Zrotation Xrotation Yrotation
						JOINT RightHand
						{
							OFFSET	-3.168650	-24.865023	5.373370
							CHANNELS 3 Zrotation Xrotation Yrotation
							End Site
							{
								OFFSET	-1.457528	-10.806075	2.170267
							}
						}
					}
				}
			}
			JOINT Neck
			{
				OFFSET	0.000000	27.075639	0.680489
				CHANNELS 3 Zrotation Xrotation Yrotation
				JOINT Head
				{
					OFFSET	0.000000	12.391287	1.239129
					CHANNELS 3 Zrotation Xrotation Yrotation
					End Site
					{
						OFFSET	0.000000	13.818691	-0.105853
					}
				}
			}
		}
	}
}
MOTION
Frames:    19
Frame Time: 0.016667
-27.905866	91.580775	5.239306	-179.966171	-178.550293	-36.633377	16.286629	-35.496819	40.913010	21.607613	40.899551	-32.182098	-5.806319	-10.570758	6.415791	0.	0.	0.	-19.402540	-6.548415	-26.222227	-21.388758	30.604378	13.872764	27.201857	-9.051200	14.835398	0.	0.	0.	-4.534614	41.893333	21.207054	0.857354	7.377309	-27.091230	-7.874255	-4.163001	1.445235	3.208404	-26.446972	23.420658	41.742294	-131.760452	79.431114	-6.495309	-10.264676	42.838501	-16.228481	-6.340802	5.522079	8.871428	-15.207296	2.579248	-0.504777	-59.355587	-10.939903	-0.376643	2.737751	-0.047562	-36.177925	23.338001	38.743179	-3.026475	-0.950491	-18.375875	
-27.264287	91.559875	5.747762	-179.634613	-178.621246	-36.432526	17.098541	-35.215511	41.036415	21.566826	40.772030	-31.945942	-5.957433	-10.249043	5.948596	0.	0.	0.	-18.949396	-6.019705	-26.885889	-21.810974	30.944504	14.575558	26.941162	-7.934403	15.083921	0.	0.	0.	-6.923790	41.444611	24.124489	2.663312	7.555351	-27.849747	-7.988860	-4.386740	1.179631	2.613352	-26.426151	22.837097	42.807491	-131.549500	79.975815	-5.997997	-9.571574	43.082806	-15.965460	-6.419203	5.345607	9.858733	-12.952732	1.169839	-0.727578	-61.449867	-10.638224	-3.119506	1.992891	2.374135	-37.472321	24.151272	42.475109	-2.761142	-2.287009	-21.239063	
-25.190848	91.839703	6.396598	-179.320847	-178.420685	-34.665848	18.824900	-34.639706	38.101746	18.019955	40.837891	-24.599577	-7.555169	-7.930219	1.287290	0.	0.	0.	-17.775793	-4.807010	-29.798967	-23.768770	31.306662	15.836770	26.909533	-1.655193	16.695366	0.	0.	0.	-7.653530	42.242687	24.184580	1.801529	8.154983	-28.039410	-7.539694	-7.007197	2.071002	2.533666	-24.531092	22.281328	46.102013	-130.844391	81.295143	-5.286280	-7.831523	43.554939	-14.765565	-6.817512	5.060874	11.750091	-6.828773	-0.974452	-1.238833	-69.704910	-17.774307	2.945141	0.947697	0.480489	-36.841625	24.439768	44.954887	-4.136083	-3.898147	-20.654068	
-24.523069	92.166466	6.269612	-179.293213	-178.379074	-33.982922	19.089542	-34.399055	36.314701	16.401100	40.666161	-21.039076	-8.273833	-6.878845	-0.556897	0.	0.	0.	-17.621017	-4.829936	-29.898167	-24.001846	31.976757	16.066486	26.540390	0.828341	16.894318	0.	0.	0.	-8.559671	42.444851	24.542391	1.764287	7.986638	-28.298433	-7.188859	-7.776464	2.475058	3.297559	-23.579111	23.122984	47.261257	-130.746552	81.912537	-5.338580	-7.509144	43.482300	-14.291799	-6.839756	4.682643	11.789776	-5.385143	-1.661236	0.189749	-71.654144	-18.204788	6.018208	0.464532	-2.080834	-37.157318	24.636799	45.884258	-4.000979	-4.923176	-19.898640	
-23.038761	93.082641	5.123934	-178.889938	-177.607285	-32.737247	19.817509	-33.705639	33.578766	13.952079	38.880367	-15.999944	-9.630285	-4.309976	-2.991249	0.	0.	0.	-16.919451	-5.558001	-29.330612	-24.078987	33.508209	18.479389	21.131720	7.375451	17.439783	0.	0.	0.	-11.708062	41.952873	25.982967	2.135079	7.858810	-29.131392	-6.024540	-9.277101	3.018956	6.548396	-20.819950	29.225410	52.060123	-132.070129	85.030266	-5.453008	-7.553632	43.579163	-12.837735	-7.830007	3.010345	10.637345	-0.668103	-9.192156	32.531185	-74.964622	13.906470	8.885308	0.378274	-4.375090	-38.152977	24.393303	48.472168	-3.071501	-7.300275	-17.687984	
-21.235981	94.375566	5.155096	-178.316437	-177.080948	-32.358803	20.563988	-30.980881	32.411751	12.389637	33.987072	-14.229977	-11.341051	0.045266	-2.867264	0.	0.	0.	-15.500148	-6.417945	-27.110527	-23.696363	34.364399	20.012545	14.677947	10.555596	19.212833	0.	0.	0.	-13.508984	41.253117	26.553621	2.601596	7.835077	-29.428228	-5.289591	-10.152617	3.267218	8.116246	-18.299217	33.452156	55.088623	-133.580902	86.353287	-5.357185	-8.217784	44.662140	-12.067384	-8.755059	1.801886	9.523928	3.432287	-12.392178	55.747433	-76.515060	39.036404	7.792479	2.875838	-0.250014	-39.018040	23.615404	49.707195	-1.715970	-8.447973	-16.180788	
-21.239667	94.524607	5.234974	-177.439545	-176.580978	-32.264122	21.677570	-31.005678	32.372665	12.389641	33.987064	-14.229974	-11.341049	0.045263	-2.867265	0.	0.	0.	-14.371139	-6.418272	-27.152470	-23.696377	34.364403	20.012547	14.677943	10.555600	19.212837	0.	0.	0.	-14.707096	40.349205	26.558189	3.250054	8.013928	-29.400341	-4.519698	-11.134467	3.654763	9.523926	-14.729349	37.021732	56.481030	-135.137253	86.630806	-5.246259	-8.876679	45.991875	-11.420320	-9.796750	0.442027	7.687201	7.319503	-14.428809	79.127739	-77.553711	64.754738	7.043334	5.886366	3.880094	-39.801605	22.254686	50.692039	-0.125705	-9.370910	-14.723651	
-18.917880	95.871201	6.115095	-177.014465	-176.300919	-32.200336	22.524403	-28.633537	31.652094	11.448604	29.361078	-12.930749	-12.851110	5.200942	-2.116034	0.	0.	0.	-11.775070	-6.964571	-25.388447	-25.191671	32.941948	24.911554	6.918235	12.773834	23.921043	0.	0.	0.	-15.755276	39.336159	25.553043	4.113891	8.284618	-28.298830	-4.030112	-11.547255	4.074520	9.996423	-12.650085	38.746922	56.988441	-136.123825	86.533554	-5.165302	-9.404629	46.751503	-11.089149	-10.276449	-0.130828	6.596795	9.199509	-15.285735	91.590240	-77.635551	78.586411	7.430735	6.827494	4.754315	-40.146782	21.340721	51.247002	0.639923	-9.783840	-13.938066	
-17.631201	97.115243	6.605447	-175.414291	-175.018402	-31.710167	24.820486	-27.659462	31.028908	10.869256	26.601746	-10.413428	-13.293844	9.604588	-2.895237	0.	0.	0.	-7.867821	-7.843520	-24.064095	-26.494707	31.779181	27.690599	6.843570	12.291438	24.189596	0.	0.	0.	-14.794113	38.417084	23.902948	4.186739	7.864597	-30.264797	-2.346267	-11.838307	7.220560	10.464280	-8.322735	41.817280	57.853664	-138.162277	85.615448	-5.309426	-10.301293	47.553757	-10.090279	-11.389737	-0.734304	3.296612	13.069707	-18.652412	-60.166344	-105.543152	-69.244629	8.745913	9.112757	4.621215	-40.652451	17.381466	53.213573	2.060741	-10.994615	-11.185644	
-15.612773	98.459522	7.933862	-173.977402	-174.256393	-31.187019	27.470535	-26.328232	30.027975	9.543407	23.460859	-4.502549	-13.208510	17.554514	-4.754991	0.	0.	0.	-4.015423	-9.242599	-19.344305	-25.610161	31.103722	28.181421	8.202670	9.661110	18.548336	0.	0.	0.	-14.052728	37.925877	22.194099	4.789722	7.902099	-31.264532	-1.075129	-12.672744	8.104899	11.466905	-2.025484	46.327454	58.262512	-141.167328	83.373405	-5.269111	-13.268568	49.835621	-9.498806	-12.103559	-0.930865	0.910993	14.060766	-20.513466	-49.211048	-108.961800	-56.910900	8.100554	10.997075	4.741454	-40.899956	14.220900	53.473690	2.991784	-12.230472	-8.464645	
-15.744045	98.747711	7.941119	-172.152435	-173.733383	-30.701294	29.194490	-26.093294	29.513771	9.543410	23.460857	-4.502549	-13.208510	17.554512	-4.754992	0.	0.	0.	-2.107456	-8.801739	-19.619110	-25.610157	31.103716	28.181429	8.331666	5.047411	16.685007	0.	0.	0.	-12.632305	37.986782	20.048168	5.037476	7.786165	-31.739063	-0.443829	-12.531513	9.139945	12.345216	1.619576	48.834476	57.780560	-142.822006	81.648827	-5.284068	-14.240216	50.493568	-9.053887	-12.196347	-1.272531	-1.450491	13.391309	-21.638952	-42.547901	-112.151634	-48.959751	6.428412	14.165898	5.942073	-41.177662	11.309711	52.941143	4.266603	-13.289454	-5.193059	
-14.038172	99.457222	9.754807	-171.175125	-173.629471	-30.528910	31.558540	-25.291485	28.365751	8.008424	21.696617	2.302765	-13.435284	25.632574	-5.322966	0.	0.	0.	-0.425732	-9.576610	-14.814401	-22.421076	29.335127	23.586390	9.317210	7.308722	13.870801	0.	0.	0.	-11.728518	38.240131	18.874977	5.007577	7.598130	-31.760782	-0.275014	-12.225471	9.489162	12.752824	3.125031	49.757469	57.423950	-143.391403	80.846626	-5.277328	-14.667233	50.753578	-8.838605	-11.978232	-1.450435	-2.563459	12.481710	-22.026052	-40.086906	-113.729546	-45.750038	5.347429	15.911222	6.840182	-41.284779	10.052792	52.581158	4.867752	-13.674622	-3.582474	
-13.254199	99.805515	11.020567	-169.158295	-173.348572	-30.366058	34.497257	-24.659159	28.239580	7.311533	21.152639	5.991289	-14.477723	30.145815	-4.448040	0.	0.	0.	1.155626	-9.396319	-13.376784	-20.133770	26.832247	18.807554	9.947894	7.431903	13.877507	0.	0.	0.	-9.422869	38.697029	14.767873	4.684326	6.921002	-30.661737	-0.431764	-11.123163	10.750174	13.338111	5.471120	50.760788	56.739079	-143.996490	79.742531	-5.258865	-15.567962	51.410366	-8.131939	-11.096067	-2.028223	-5.681453	8.545753	-23.377350	-32.197811	-119.602150	-34.829449	4.397889	24.086725	9.827840	-41.469250	7.392930	51.481621	6.110293	-14.258315	-0.039789	
-12.281275	99.931573	12.563434	-166.646881	-172.523666	-30.468187	38.888683	-24.009321	30.343235	6.675590	20.893209	9.769157	-16.536695	34.295792	-2.467731	0.	0.	0.	2.158006	-9.366251	-13.572343	-16.192245	21.340666	12.292283	10.590219	9.710003	15.777928	0.	0.	0.	-6.364103	38.651718	12.291834	4.600046	6.835340	-29.251713	-0.272812	-10.391929	10.247764	13.658854	7.315413	50.225048	56.209309	-143.681976	79.732864	-5.130543	-16.265619	52.450535	-7.646308	-10.637177	-2.437971	-7.182122	5.442055	-24.630514	-36.470135	-120.914375	-38.689240	2.136228	25.630064	14.841928	-41.563477	6.297564	50.456623	6.749357	-14.114378	1.128965	
-12.435480	100.088947	12.673592	-165.350845	-171.951355	-30.585888	40.478302	-23.751221	30.508793	6.675591	20.893211	9.769156	-16.536697	34.295788	-2.467732	0.	0.	0.	3.725798	-9.249984	-13.292967	-16.192242	21.340670	12.292287	10.590221	9.710001	15.777935	0.	0.	0.	-4.197627	38.002823	9.907639	4.655588	7.062768	-27.822653	-1.277544	-10.107639	10.882679	13.658854	7.315417	50.225048	56.843555	-144.696655	80.805092	-4.622165	-15.695935	53.025921	-7.118217	-10.327674	-2.575885	-8.045379	2.504183	-25.069187	-36.881001	-123.260284	-38.299969	1.559863	28.571375	16.681095	-41.652210	5.509932	49.217388	7.457674	-13.671006	1.395959	
-11.242789	99.520271	13.489514	-164.222702	-171.455093	-30.643433	43.574741	-23.836300	35.913727	7.543064	22.070148	9.017043	-18.993439	33.719997	0.394273	0.	0.	0.	1.876642	-8.726949	-16.600239	-9.603301	12.279734	8.892316	9.001522	15.831715	16.561060	0.	0.	0.	-2.119299	37.406334	8.267253	4.692501	7.199623	-27.599791	-0.376276	-8.838104	10.808805	12.539736	6.224265	48.951042	56.136707	-142.657074	80.970299	-3.844302	-14.416378	53.413837	-6.505892	-10.210444	-1.692027	-7.452419	-0.934593	-22.911167	-37.158405	-123.480011	-36.636066	0.740717	30.488598	17.449261	-41.670399	4.563618	48.541424	8.210463	-13.147738	1.120067	
-11.003112	99.224640	13.652563	-163.749405	-171.292831	-30.660856	44.721310	-24.142895	37.295319	7.943980	22.978649	7.698474	-19.713511	32.552044	1.631304	0.	0.	0.	1.680343	-8.552947	-17.596941	-8.066504	10.195869	9.834276	8.124715	17.886461	16.368731	0.	0.	0.	-1.083857	37.232285	7.645877	4.611722	7.126448	-27.914993	-0.348411	-8.447823	11.350364	12.160754	5.576537	48.636288	55.944138	-142.308350	81.138100	-3.555555	-13.601384	53.395519	-6.190791	-10.171070	-0.854526	-7.224865	-1.886760	-21.299603	-36.326401	-123.514656	-35.451611	0.141291	31.202745	17.617441	-41.629082	4.036202	48.621761	8.535834	-12.915245	0.843667	
-10.482003	98.413429	13.921883	-162.877029	-170.907883	-30.649252	47.228386	-25.192955	39.372272	8.637136	25.620642	4.800835	-21.583221	29.166435	4.912115	0.	0.	0.	1.094578	-8.834112	-18.683794	-5.575668	7.648486	12.639840	6.571138	20.724943	15.947928	0.	0.	0.	0.816570	37.158939	6.737712	4.271981	6.596980	-28.885109	-0.321684	-7.690186	12.622421	11.514032	3.961288	47.947807	55.271488	-141.427139	81.242714	-3.432055	-12.102465	52.773449	-5.632144	-9.943146	1.230753	-6.451907	-3.385441	-17.108366	-34.109386	-122.343498	-32.898273	-1.383587	31.789911	17.911753	-41.370415	3.215741	49.529064	8.911307	-12.641764	-0.119006	
-9.778235	97.304059	14.303870	-162.376968	-170.651871	-30.567890	49.795921	-26.635180	40.349316	9.015745	29.062824	2.987325	-22.704584	26.265715	6.418418	0.	0.	0.	0.537263	-9.739896	-19.337898	-4.561357	7.716766	14.518227	6.368865	21.496960	15.476959	0.	0.	0.	2.061919	36.929691	6.107713	3.912448	6.492355	-29.063274	-0.339692	-7.344012	13.077099	11.254996	2.969488	47.570728	54.797153	-140.948837	81.216904	-3.593120	-11.509830	52.135658	-5.399917	-9.775156	2.247802	-5.381401	-4.517515	-11.404623	-29.108242	-119.368416	-26.438221	-2.467388	31.824802	18.047394	-41.149509	3.048960	50.030190	8.900125	-12.666636	-0.803234	
